<svg width="30" height="30" viewBox="0 0 18 9" fill="none" xmlns="http://www.w3.org/2000/svg">
<path d="M16.8711 3.85004C17.1472 3.85004 17.3711 4.07389 17.3711 4.35004C17.3711 4.62618 17.1472 4.85004 16.8711 4.85004V3.85004ZM0.84243 4.70359C0.647169 4.50833 0.647169 4.19175 0.84243 3.99648L4.02441 0.814503C4.21967 0.619241 4.53626 0.619241 4.73152 0.814503C4.92678 1.00976 4.92678 1.32635 4.73152 1.52161L1.90309 4.35004L4.73152 7.17846C4.92678 7.37373 4.92678 7.69031 4.73152 7.88557C4.53626 8.08083 4.21967 8.08083 4.02441 7.88557L0.84243 4.70359ZM16.8711 4.85004H1.19598V3.85004H16.8711V4.85004Z" fill="white"/>
</svg>
