<svg width="28" height="28" viewBox="0 0 28 28" fill="none" xmlns="http://www.w3.org/2000/svg">
<path d="M19.5838 13.9415L14.6336 8.99132C14.1781 8.53578 14.1781 7.7972 14.6336 7.34166C15.0892 6.88611 15.8278 6.88611 16.2833 7.34166L22.0582 13.1165C22.5138 13.5721 22.5138 14.3108 22.0582 14.7664L16.2833 20.5413C15.8278 20.9969 15.0892 20.9969 14.6336 20.5413C14.1781 20.0858 14.1781 19.3472 14.6336 18.8917L19.5838 13.9415Z" fill="#58468C"/>
<path fill-rule="evenodd" clip-rule="evenodd" d="M4.66699 14C4.66699 13.3557 5.18932 12.8333 5.83365 12.8333H20.417C21.0613 12.8333 21.5837 13.3557 21.5837 14C21.5837 14.6443 21.0613 15.1667 20.417 15.1667H5.83365C5.18932 15.1667 4.66699 14.6443 4.66699 14Z" fill="#58468C"/>
</svg>
