<svg width="17" height="32" viewBox="0 0 17 32" fill="none" xmlns="http://www.w3.org/2000/svg">
<path d="M15.6959 30.613V6.9687C15.6958 6.71531 15.616 6.46837 15.4679 6.26279C15.3198 6.05721 15.1108 5.90339 14.8704 5.82309L2.80293 1.80059C2.62148 1.73978 2.42816 1.72306 2.23896 1.7518C2.04976 1.78055 1.87013 1.85394 1.71493 1.9659C1.55973 2.07785 1.43342 2.22516 1.34646 2.39563C1.2595 2.5661 1.21438 2.75483 1.21485 2.9462V30.613" stroke="#A0A3BD" stroke-width="1.6" stroke-linecap="round" stroke-linejoin="round"/>
<path d="M10.8672 22.993V24.1997" stroke="#A0A3BD" stroke-width="1.6" stroke-linecap="round" stroke-linejoin="round"/>
<path d="M10.8672 16.9592V18.1659" stroke="#A0A3BD" stroke-width="1.6" stroke-linecap="round" stroke-linejoin="round"/>
<path d="M10.8672 10.9254V12.1322" stroke="#A0A3BD" stroke-width="1.6" stroke-linecap="round" stroke-linejoin="round"/>
<path d="M6.04297 22.993V24.1997" stroke="#A0A3BD" stroke-width="1.6" stroke-linecap="round" stroke-linejoin="round"/>
<path d="M6.04297 16.9592V18.1659" stroke="#A0A3BD" stroke-width="1.6" stroke-linecap="round" stroke-linejoin="round"/>
<path d="M6.04297 10.9254V12.1322" stroke="#A0A3BD" stroke-width="1.6" stroke-linecap="round" stroke-linejoin="round"/>
</svg>
