<svg width="28" height="28" viewBox="0 0 28 28" fill="none" xmlns="http://www.w3.org/2000/svg">
<mask id="mask0_317_2033" style="mask-type:luminance" maskUnits="userSpaceOnUse" x="0" y="0" width="28" height="28">
<path d="M28 0H0V28H28V0Z" fill="white"/>
</mask>
<g mask="url(#mask0_317_2033)">
<path d="M20.8951 2.97789C20.8951 2.6862 20.6968 2.43194 20.4141 2.3612L20.0661 2.27411C19.7175 2.18683 19.3991 2.00635 19.1449 1.75196C18.8908 1.49757 18.7105 1.17884 18.6233 0.829838L18.5364 0.481775C18.4657 0.198633 18.2115 0 17.9199 0C17.6286 0 17.3747 0.198277 17.3037 0.481081L17.2162 0.829838C17.129 1.17872 16.9489 1.49737 16.695 1.75174C16.441 2.00612 16.1228 2.18667 15.7743 2.27411L15.4263 2.3612C15.1436 2.43194 14.9453 2.6862 14.9453 2.97789C14.9453 3.26957 15.1436 3.52383 15.4263 3.59457L15.7743 3.68166C16.123 3.76894 16.4414 3.94942 16.6955 4.20381C16.9497 4.4582 17.13 4.77693 17.2172 5.12593L17.3042 5.47428C17.3748 5.75725 17.6288 5.95577 17.9202 5.95577C18.2116 5.95577 18.4656 5.75725 18.5363 5.47428L18.6233 5.12593C18.7105 4.77693 18.8908 4.4582 19.1449 4.20381C19.3991 3.94942 19.7175 3.76894 20.0661 3.68166L20.4141 3.59457C20.6968 3.52383 20.8951 3.26957 20.8951 2.97789Z" fill="#85EFAC"/>
<path d="M27.9997 8.75008C27.9997 8.35011 27.7275 8.00147 27.3394 7.90447L26.8618 7.78505C26.3832 7.66537 25.9462 7.41789 25.5974 7.06907C25.2485 6.72025 25.0011 6.2832 24.8814 5.80464L24.762 5.32698C24.665 4.93896 24.3163 4.66675 23.9163 4.66675C23.5164 4.66675 23.1677 4.93896 23.0707 5.32698L22.9513 5.80464C22.8316 6.2832 22.5842 6.72025 22.2353 7.06907C21.8865 7.41789 21.4495 7.66537 20.9709 7.78505L20.4932 7.90447C20.1052 8.00147 19.833 8.35011 19.833 8.75008C19.833 9.15005 20.1052 9.49869 20.4932 9.59569L20.9709 9.71511C21.4495 9.83479 21.8865 10.0823 22.2353 10.4311C22.5842 10.7799 22.8316 11.217 22.9513 11.6955L23.0707 12.1732C23.1677 12.5612 23.5164 12.8334 23.9163 12.8334C24.3163 12.8334 24.665 12.5612 24.762 12.1732L24.8814 11.6955C25.0011 11.217 25.2485 10.7799 25.5974 10.4311C25.9462 10.0823 26.3832 9.83479 26.8618 9.71511L27.3394 9.59569C27.7275 9.49869 27.9997 9.15005 27.9997 8.75008Z" fill="#85EFAC"/>
<path d="M11.3321 5.26616C11.6474 4.46694 12.8528 4.46694 13.1682 5.26616L15.4429 11.2809C15.542 11.5322 15.7533 12.3868 16.0213 12.4798L21.5271 14.9052C22.3794 15.201 22.3794 16.3314 21.5271 16.6271L16.0212 18.4739C15.7533 18.5668 15.542 19.4214 15.4429 19.6727L13.1682 25.0674C12.8528 25.8666 11.6474 25.8666 11.3321 25.0674L9.05738 19.6727C8.95823 19.4214 8.74697 18.5668 8.47903 18.4739L2.9722 16.6271C2.11995 16.3314 2.11995 15.201 2.9722 14.9052L8.47903 12.4798C8.74697 12.3868 8.95823 11.5322 9.05738 11.2809L11.3321 5.26616Z" fill="#85EFAC"/>
</g>
</svg>
