<svg width="17" height="29" viewBox="0 0 17 29" fill="none" xmlns="http://www.w3.org/2000/svg">
<path d="M13.5403 1.61301H3.36634C2.11769 1.61301 1.10547 2.62523 1.10547 3.87388V25.3521C1.10547 26.6008 2.11769 27.613 3.36634 27.613H13.5403C14.7889 27.613 15.8011 26.6008 15.8011 25.3521V3.87388C15.8011 2.62523 14.7889 1.61301 13.5403 1.61301Z" stroke="#A0A3BD" stroke-width="1.6" stroke-linecap="round" stroke-linejoin="round"/>
<path d="M12.1561 1.61301V3.09424C12.1561 3.48708 12.0001 3.86384 11.7223 4.14162C11.4445 4.41941 11.0678 4.57546 10.6749 4.57546H6.23123C5.83838 4.57546 5.46163 4.41941 5.18384 4.14162C4.90606 3.86384 4.75 3.48708 4.75 3.09424V1.61301" stroke="#A0A3BD" stroke-width="1.6" stroke-linecap="round" stroke-linejoin="round"/>
</svg>
