<svg width="60" height="60" viewBox="0 0 60 60" fill="none" xmlns="http://www.w3.org/2000/svg">
<path d="M29.8871 18.1313H42.3934C46.2027 18.1213 49.853 16.6024 52.5448 13.907C55.2367 11.2116 56.7509 7.55938 56.7559 3.75C56.7559 3.25272 56.5583 2.77581 56.2067 2.42417C55.8551 2.07254 55.3781 1.875 54.8809 1.875H48.6371C46.0938 1.87628 43.5962 2.55204 41.3992 3.83335C39.2022 5.11467 37.3843 6.95571 36.1309 9.16875C34.882 6.9559 33.0677 5.11451 30.8736 3.83297C28.6795 2.55143 26.1843 1.87573 23.6434 1.875H17.3809C16.8836 1.875 16.4067 2.07254 16.055 2.42417C15.7034 2.77581 15.5059 3.25272 15.5059 3.75C15.5108 7.56262 17.0276 11.2177 19.7235 13.9136C22.4194 16.6095 26.0745 18.1263 29.8871 18.1313Z" fill="white"/>
<path d="M57.8629 45C57.4693 43.9507 56.71 43.0788 55.7247 42.5449C54.7394 42.0109 53.5944 41.8507 52.5004 42.0938L45.0004 43.6313C45.0188 43.269 45.0188 42.906 45.0004 42.5438C44.981 41.8018 44.815 41.0709 44.5118 40.3934C44.2087 39.7158 43.7745 39.105 43.2341 38.596C42.6938 38.0871 42.0581 37.6901 41.3637 37.428C40.6692 37.1659 39.9297 37.0438 39.1879 37.0688C36.7514 37.1432 34.333 36.6287 32.1379 35.5688L28.5941 34.0125C27.6426 33.6014 26.5836 33.5093 25.5754 33.75C25.4452 33.7674 25.3186 33.8054 25.2004 33.8625L22.8754 34.9125C23.562 36.7759 23.7431 38.7878 23.4004 40.7438L21.1879 52.6313C21.1879 52.9125 21.0379 53.175 20.9629 53.4563L30.9941 57.3188C32.3426 57.8543 33.7807 58.1279 35.2316 58.125C36.7162 58.1243 38.1866 57.8378 39.5629 57.2813L55.1066 50.9813C56.2393 50.5201 57.1542 49.6456 57.666 48.535C58.1778 47.4243 58.2482 46.1606 57.8629 45Z" fill="white"/>
<path d="M15 32.4188L4.08754 30.7688C3.81622 30.7191 3.5373 30.73 3.27064 30.8005C3.00399 30.871 2.75617 30.9995 2.54487 31.1767C2.33357 31.354 2.16398 31.5757 2.0482 31.8261C1.93241 32.0764 1.87329 32.3492 1.87504 32.625V55.125C1.87504 55.6223 2.07258 56.0992 2.42421 56.4509C2.77584 56.8025 3.25276 57 3.75004 57H12C13.3642 56.9444 14.6645 56.4072 15.6703 55.4839C16.676 54.5605 17.322 53.3107 17.4938 51.9563L19.7063 40.05C19.8783 39.131 19.8658 38.1868 19.6694 37.2726C19.473 36.3584 19.0968 35.4924 18.5625 34.725C18.1553 34.12 17.6296 33.6037 17.0173 33.2073C16.4051 32.8109 15.7188 32.5427 15 32.4188Z" fill="white"/>
<path d="M52.4996 40.575C51.9576 38.9285 50.9697 37.4646 49.6457 36.3458C48.3217 35.227 46.7134 34.4972 44.9996 34.2375C44.4399 32.7502 43.5113 31.4296 42.301 30.3997C41.0908 29.3698 39.6386 28.6645 38.0809 28.35V21.8812H34.3309V28.35C32.1523 28.8 30.2012 30.0012 28.8184 31.7437C29.3984 31.7833 29.9682 31.9162 30.5059 32.1375L34.0496 33.6937C36.0496 34.6461 38.2287 35.1637 40.4434 35.2125H41.0996C42.5884 35.1721 44.0325 35.7238 45.1151 36.7467C46.1977 37.7695 46.8305 39.18 46.8746 40.6687C46.893 41.031 46.893 41.394 46.8746 41.7562L52.4996 40.575Z" fill="white"/>
</svg>
