<svg width="60" height="60" viewBox="0 0 60 60" fill="none" xmlns="http://www.w3.org/2000/svg">
<path d="M21.5625 21.5625V19.6875L12.1875 10.3125V7.5L7.5 2.8125V7.5H2.8125L7.5 12.1875H10.3125L19.6875 21.5625H21.5625Z" fill="#0468AD"/>
<path d="M38.4375 38.4375V40.3125L47.8125 49.6875V52.5L52.5 57.1875V52.5H57.1875L52.5 47.8125H49.6875L40.3125 38.4375H38.4375Z" fill="#0468AD"/>
<path d="M26.0147 49.185L24.6891 47.8594H11.43L9.44156 45.871H2.8125L6.1275 49.185L2.8125 52.5H9.44156L11.43 50.5116H24.6891L26.0147 49.185Z" fill="#0468AD"/>
<path d="M30 53.4375C42.9442 53.4375 53.4375 42.9442 53.4375 30C53.4375 17.0558 42.9442 6.5625 30 6.5625C17.0558 6.5625 6.5625 17.0558 6.5625 30C6.5625 42.9442 17.0558 53.4375 30 53.4375Z" fill="#E5E6EB"/>
<path d="M38.6174 21.3825C39.7662 22.5104 40.6801 23.8547 41.3064 25.3378C41.9328 26.8208 42.2591 28.4133 42.2665 30.0232C42.2738 31.6331 41.9622 33.2285 41.3495 34.7173C40.7369 36.206 39.8353 37.5587 38.6969 38.6971C37.5586 39.8354 36.2059 40.737 34.7172 41.3497C33.2284 41.9623 31.633 42.274 30.0231 42.2666C28.4132 42.2592 26.8207 41.9329 25.3376 41.3066C23.8545 40.6803 22.5103 39.7663 21.3824 38.6175L13.4268 46.5731C17.8222 50.9686 23.7838 53.4379 29.9999 53.4379C36.216 53.4379 42.1775 50.9686 46.573 46.5731C50.9685 42.1777 53.4378 36.2161 53.4378 30C53.4378 23.7839 50.9685 17.8223 46.573 13.4269L38.6174 21.3825Z" fill="#D9DAE2"/>
<path d="M30 47.8125C39.8376 47.8125 47.8125 39.8376 47.8125 30C47.8125 20.1624 39.8376 12.1875 30 12.1875C20.1624 12.1875 12.1875 20.1624 12.1875 30C12.1875 39.8376 20.1624 47.8125 30 47.8125Z" fill="#444444"/>
<path d="M33.9774 26.0222C35.0324 27.0771 35.6251 28.508 35.6251 30C35.6251 31.4919 35.0324 32.9228 33.9774 33.9778C32.9224 35.0328 31.4916 35.6255 29.9996 35.6255C28.5076 35.6255 27.0768 35.0328 26.0218 33.9778L17.4043 42.5953C19.0571 44.255 21.021 45.5724 23.1836 46.4721C25.3462 47.3718 27.665 47.8361 30.0073 47.8386C32.3495 47.841 34.6693 47.3814 36.8337 46.4862C38.9982 45.591 40.9648 44.2777 42.621 42.6214C44.2773 40.9652 45.5906 38.9985 46.4858 36.8341C47.3811 34.6697 47.8406 32.3499 47.8382 30.0076C47.8358 27.6653 47.3714 25.3465 46.4717 23.184C45.572 21.0214 44.2546 19.0575 42.5949 17.4047L33.9774 26.0222Z" fill="black"/>
<path d="M30 42.1875C36.731 42.1875 42.1875 36.731 42.1875 30C42.1875 23.269 36.731 17.8125 30 17.8125C23.269 17.8125 17.8125 23.269 17.8125 30C17.8125 36.731 23.269 42.1875 30 42.1875Z" fill="#E5E6EB"/>
<path d="M30.0003 42.1874C32.4107 42.1873 34.7669 41.4724 36.7709 40.1332C38.775 38.7941 40.337 36.8907 41.2594 34.6638C42.1818 32.4369 42.4231 29.9865 41.9529 27.6225C41.4827 25.2584 40.3221 23.0869 38.6178 21.3824L21.3828 38.6174C22.5131 39.751 23.8563 40.65 25.3352 41.2626C26.8141 41.8753 28.3995 42.1896 30.0003 42.1874Z" fill="#D9DAE2"/>
<path d="M30 35.625C33.1066 35.625 35.625 33.1066 35.625 30C35.625 26.8934 33.1066 24.375 30 24.375C26.8934 24.375 24.375 26.8934 24.375 30C24.375 33.1066 26.8934 35.625 30 35.625Z" fill="#444444"/>
<path d="M30.0003 35.625C31.1129 35.6252 32.2006 35.2953 33.1257 34.6773C34.0509 34.0592 34.7719 33.1806 35.1977 32.1527C35.6235 31.1248 35.7349 29.9937 35.5178 28.9025C35.3007 27.8112 34.7649 26.8089 33.9781 26.0222L26.0225 33.9778C26.5444 34.5008 27.1645 34.9155 27.8471 35.1981C28.5297 35.4808 29.2614 35.6259 30.0003 35.625Z" fill="black"/>
<path d="M30 31.875C31.0355 31.875 31.875 31.0355 31.875 30C31.875 28.9645 31.0355 28.125 30 28.125C28.9645 28.125 28.125 28.9645 28.125 30C28.125 31.0355 28.9645 31.875 30 31.875Z" fill="white"/>
<path d="M30 30V27.1875L43.125 14.0625V10.3125L49.6875 3.75V10.3125H56.25L49.6875 16.875H45.9375L32.8125 30H30Z" fill="#027DE5"/>
<path d="M50.1959 16.3668L49.6878 16.875H48.2581C51.5645 21.4709 53.0198 27.1429 52.3346 32.7629C51.6494 38.383 48.8739 43.5392 44.5602 47.206C40.2465 50.8729 34.7106 52.7817 29.0535 52.5528C23.3965 52.3239 18.0329 49.9741 14.0295 45.9707C10.0261 41.9673 7.67631 36.6037 7.44742 30.9467C7.21853 25.2897 9.12734 19.7538 12.7942 15.44C16.4611 11.1263 21.6173 8.35082 27.2373 7.66564C32.8574 6.98046 38.5294 8.43579 43.1253 11.7422V10.3125L43.6334 9.80434C38.6058 6.40872 32.4935 5.00815 26.489 5.87593C20.4845 6.74372 15.0188 9.81759 11.1584 14.4977C7.29796 19.1779 5.31982 25.1285 5.60997 31.1884C5.90011 37.2483 8.43773 42.9827 12.7276 47.2726C17.0175 51.5625 22.7519 54.1001 28.8119 54.3903C34.8718 54.6804 40.8224 52.7023 45.5025 48.8419C50.1827 44.9814 53.2565 39.5157 54.1243 33.5112C54.9921 27.5068 53.5915 21.3944 50.1959 16.3668Z" fill="black"/>
</svg>
